<?xml version="1.0" encoding="utf-8"?>
<!-- Svg Vector Icons : http://www.onlinewebfonts.com/icon -->
<!DOCTYPE svg PUBLIC "-//W3C//DTD SVG 1.1//EN" "http://www.w3.org/Graphics/SVG/1.1/DTD/svg11.dtd">
<svg version="1.1" xmlns="http://www.w3.org/2000/svg" xmlns:xlink="http://www.w3.org/1999/xlink" x="0px" y="0px" viewBox="0 0 1000 1000" enable-background="new 0 0 1000 1000" xml:space="preserve">
<metadata> Svg Vector Icons : http://www.onlinewebfonts.com/icon </metadata>
<g><g transform="translate(0.000000,512.000000) scale(0.100000,-0.100000)"><path d="M4561.9,5002c-927.2-82.4-1821.8-438.7-2588-1028.7c-208.8-160.9-666.6-618.8-827.6-827.6C393.5,2170.7,27.6,985,111.9-193.1C182.8-1185.5,495-2030.2,1090.8-2831c321.8-434.9,873.5-936.7,1354.4-1231.7c852.5-523,1888.8-777.8,2865.8-706.9c695.4,49.8,1229.8,191.6,1844.7,492.3C8126.9-3804.1,8921.9-3009.1,9397-2036c298.8,613,442.5,1149.4,492.3,1842.8c45.9,643.6-57.5,1385-281.6,1990.3c-88.1,239.5-321.8,720.3-442.5,908c-281.6,442.5-764.3,980.8-1137.9,1268.2C7015.8,4753,5803.2,5111.2,4561.9,5002z M5328.2,3509.8c1028.7-105.4,1936.7-651.3,2509.5-1511.4c668.6-1005.7,750.9-2287.3,218.4-3383c-331.4-683.9-902.3-1247.1-1590-1572.7c-1080.4-509.6-2354.3-419.5-3344.7,239.5c-385,256.7-701.1,570.9-957.8,955.9c-754.8,1130.2-756.7,2632.1-1.9,3760.4C2868.5,3053.9,4084.9,3634.3,5328.2,3509.8z"/><path d="M4617.5,3239.7c-1080.4-137.9-2005.7-795-2473.1-1750.9c-482.7-990.4-411.9-2147.4,187.7-3074.6c779.7-1201.1,2294.9-1726,3678-1272c233.7,74.7,559.3,233.7,760.5,369.7C8207.4-1516.9,8603.9,379.6,7669.1,1824c-509.6,787.3-1339,1296.9-2304.5,1415.7C5178.7,3264.6,4799.4,3262.7,4617.5,3239.7z M5860.7,2559.6c390.8-130.3,724.1-339.1,1013.4-636c88.1-90,166.6-176.2,176.2-195.4c13.4-26.8-97.7-90-760.5-432.9C5860.7,1075,5506.3,893,5498.6,889.2c-5.7-1.9-24.9,5.7-44,19.2c-26.8,21.1-36.4,128.3-70.9,839.1c-21.1,448.3-38.3,841-38.3,873.5v59.4l159-26.8C5590.6,2638.2,5751.5,2596,5860.7,2559.6z M4655.8,2615.2c0-30.6-17.2-406.1-38.3-839c-21.1-431-38.3-804.6-38.3-825.6c0-24.9-15.3-46-38.3-51.7c-24.9-5.8-296.9,124.5-819.9,392.7c-429.1,220.3-783.5,404.2-787.3,408c-15.3,17.2,367.8,388.9,515.3,500C3765,2437,4309,2659.2,4594.5,2665C4650,2666.9,4655.8,2661.2,4655.8,2615.2z M3879.9,297.2c164.7-105.4,210.7-143.7,210.7-178.1c0-34.5-132.2-128.3-747.1-524.9c-471.2-304.6-752.8-475.1-762.4-463.6c-7.7,11.5-42.1,111.1-78.5,222.2c-180.1,551.7-162.8,1111.1,47.9,1678.1l38.3,101.5L3129,781.9C3425.9,590.4,3765,372,3879.9,297.2z M7481.3,952.4c128.4-337.2,172.4-791.2,116.8-1170.5c-26.8-189.6-139.8-595.8-178.1-651.3c-9.6-11.5-289.3,157.1-762.4,463.6c-611.1,394.6-747.1,490.4-747.1,524.9c0,34.5,134.1,126.4,747.1,517.2c411.9,262.5,752.9,469.3,760.5,463.6C7425.8,1092.2,7454.5,1025.2,7481.3,952.4z M5201.7,580.8c191.6-86.2,296.9-250.9,296.9-459.8c-1.9-293.1-206.9-500-498.1-500c-291.2,0-498.1,206.9-498.1,498.1c0,205,93.9,360.1,272,448.3C4899.1,628.7,5083,634.4,5201.7,580.8z M4546.6-670.1c26.8-21.1,36.4-130.3,70.9-846.7c21.1-452.1,38.3-846.7,38.3-875.4v-51.7l-147.5,26.8c-565.1,101.5-1097.7,398.4-1454,808.4l-126.4,143.7l82.4,44.1c988.5,515.3,1484.6,770.1,1494.2,772C4510.2-647.1,4529.3-658.7,4546.6-670.1z M6289.8-1057.1l777.7-400.4l-42.1-59.4c-143.7-206.9-536.4-521.1-842.9-674.3c-241.4-122.6-787.3-275.8-829.5-233.7c-5.7,7.7,7.7,402.3,30.6,879.3c40.2,865.9,44.1,908,107.3,892.7C5502.5-654.8,5862.6-836.8,6289.8-1057.1z"/></g></g>
</svg>